Coordinates
version=1
nRows=16
nColumns=40
inDegrees=yes

Units are S.I. units (second, meters, Newtons, ...)
Angles are in degrees.

endheader
time	pelvis_tilt	pelvis_list	pelvis_rotation	pelvis_tx	pelvis_ty	pelvis_tz	hip_flexion_r	hip_adduction_r	hip_rotation_r	knee_angle_r	knee_angle_r_beta	ankle_angle_r	subtalar_angle_r	mtp_angle_r	hip_flexion_l	hip_adduction_l	hip_rotation_l	knee_angle_l	knee_angle_l_beta	ankle_angle_l	subtalar_angle_l	mtp_angle_l	lumbar_extension	lumbar_bending	lumbar_rotation	arm_flex_r	arm_add_r	arm_rot_r	elbow_flex_r	pro_sup_r	wrist_flex_r	wrist_dev_r	arm_flex_l	arm_add_l	arm_rot_l	elbow_flex_l	pro_sup_l	wrist_flex_l	wrist_dev_l
      1.33000000	     -3.58304580	     -1.00660894	      1.95730188	      0.29845802	      0.88066186	      1.10165903	     -2.50135236	      0.36052004	    -14.97796734	    -22.42281989	     -0.39135203	     12.84828013	      1.32975461	     -6.47778835	     33.11838979	      6.48420868	     19.01629155	    -22.52466385	     -0.39312955	      3.34179867	      4.69675426	     -3.15779696	     -3.24273298	     -0.22886522	      2.90644666	      3.26334887	    -11.69940686	    -15.49844426	     48.76093840	     89.95437384	      0.00000000	      0.00000000	     -9.88936186	      6.24759358	     16.25377003	     18.77843035	     89.95437384	      0.00000000	      0.00000000
      1.34000000	     -3.70743447	     -1.07587659	      1.92228421	      0.30861342	      0.87937328	      1.10028593	     -2.84405993	      0.28786250	    -14.77596690	    -22.87964144	     -0.39932507	     12.57991751	      1.27900271	     -6.36895961	     33.49297024	      6.42295191	     18.84043792	    -22.57635505	     -0.39403173	      3.25949622	      4.57770267	     -3.09902847	     -3.03201712	     -0.26948643	      2.90344358	      3.20813808	    -11.66647449	    -15.41353885	     48.90308717	     89.95437384	      0.00000000	      0.00000000	    -10.14575942	      6.27344433	     16.19957436	     18.94322213	     89.95437384	      0.00000000	      0.00000000
      1.35000000	     -3.76609388	     -1.15777141	      1.73164368	      0.31911415	      0.87831110	      1.09893977	     -3.27425611	      0.21411908	    -14.38969298	    -23.30806232	     -0.40680243	     12.47647095	      1.22410726	     -6.31643859	     33.49828022	      6.40977034	     18.80536255	    -22.46922514	     -0.39216196	      3.39109495	      4.51851306	     -3.08476707	     -2.82027971	     -0.25301119	      3.04273286	      3.20772119	    -11.66636485	    -15.24837695	     48.76094086	     89.95437384	      0.00000000	      0.00000000	    -10.16152203	      6.27752414	     16.06289808	     18.60034755	     89.95437384	      0.00000000	      0.00000000
      1.36000000	     -3.87125324	     -1.16596564	      1.61292910	      0.33000212	      0.87706526	      1.09758946	     -3.61306779	      0.05620294	    -14.05807178	    -23.88174380	     -0.41681506	     12.11841559	      1.16741252	     -6.18687923	     33.59332023	      6.28389642	     18.37014648	    -22.82783841	     -0.39842094	      3.22911041	      4.41509456	     -3.01131853	     -2.53633669	     -0.36375629	      3.10456669	      2.98351199	    -11.60844331	    -15.13152613	     48.83662190	     89.95437384	      0.00000000	      0.00000000	    -10.43357313	      6.33789938	     16.00753423	     18.80757670	     89.95437384	      0.00000000	      0.00000000
      1.37000000	     -3.54284480	     -1.11752689	      1.24262669	      0.34090581	      0.87659285	      1.09645256	     -4.35577716	     -0.14684647	    -13.26814351	    -24.52756401	     -0.42808675	     11.96798671	      0.98802492	     -6.12433012	     33.14291532	      6.20714474	     17.96289915	    -23.50442463	     -0.41022960	      3.37399187	      5.23366811	     -2.88118918	     -2.75499973	     -0.51704065	      3.46842464	      2.97600515	    -11.59593280	    -14.97268648	     48.52680804	     89.95437384	      0.00000000	      0.00000000	    -10.15877368	      6.42900322	     15.77832723	     18.19401222	     89.95437384	      0.00000000	      0.00000000
      1.38000000	     -3.49756651	     -0.96190690	      1.05793688	      0.35176812	      0.87576563	      1.09479712	     -4.79252689	     -0.41128817	    -12.38971027	    -25.12885331	     -0.43858123	     11.21090418	     -0.14953615	     -5.91352768	     32.81905423	      5.53423995	     16.20660429	    -23.90458385	     -0.41721369	      3.34868370	      7.88945858	     -2.45387373	     -2.68256619	     -0.77278432	      3.72554997	      2.64585193	    -11.50839450	    -15.07816951	     48.52921615	     89.95437384	      0.00000000	      0.00000000	    -10.07229902	      6.50720004	     15.55904122	     18.09172520	     89.95437384	      0.00000000	      0.00000000
      1.39000000	     -3.41050969	     -1.00178224	      0.92271629	      0.36319117	      0.87472892	      1.09321788	     -5.20349532	     -0.56569080	    -12.00430397	    -25.98700126	     -0.45355873	     10.75206341	     -0.26811572	     -5.76418904	     32.58192073	      5.37044209	     15.42489917	    -24.89770034	     -0.43454685	      2.78190101	      8.11124419	     -2.25981250	     -2.55818778	     -0.83823946	      3.81312271	      2.38813907	    -11.43762008	    -14.97956377	     48.29378068	     89.95437384	      0.00000000	      0.00000000	    -10.07725340	      6.58792138	     15.45232068	     18.01047983	     89.95437384	      0.00000000	      0.00000000
      1.40000000	     -3.31983472	     -1.07716190	      0.82411364	      0.37439550	      0.87386009	      1.09159158	     -5.50537268	     -0.68041052	    -11.58153879	    -26.95801313	     -0.47050609	     10.01538989	     -0.55473353	     -5.55783521	     32.39598729	      5.24778171	     14.82526377	    -25.89408169	     -0.45193698	      1.37563737	      8.89878770	     -1.84552283	     -2.47741085	     -0.88360156	      3.89035294	      2.11427413	    -11.34842871	    -14.95563496	     48.03180002	     89.95437384	      0.00000000	      0.00000000	    -10.02630382	      6.67393937	     15.35406487	     18.00792383	     89.95437384	      0.00000000	      0.00000000
      1.41000000	     -3.35609524	     -1.03925138	      0.80629036	      0.38536647	      0.87306307	      1.08952540	     -5.55471320	     -0.88889236	    -11.03113076	    -28.06868187	     -0.48989092	      8.97116014	     -1.38448347	     -5.21370080	     32.34129618	      4.89620138	     13.81777626	    -26.68992779	     -0.46582712	      0.24292220	      9.99648279	     -1.34585089	     -2.27048236	     -1.04026012	      3.87322552	      1.91305697	    -11.20845483	    -14.99771184	     47.52768260	     89.95437384	      0.00000000	      0.00000000	     -9.85727747	      6.71691758	     15.38516737	     17.84950328	     89.95437384	      0.00000000	      0.00000000
      1.42000000	     -3.56341864	     -0.80231746	      0.93349471	      0.39603197	      0.87231721	      1.08717656	     -5.19284279	     -1.28142787	    -10.41412740	    -29.58748940	     -0.51639911	      7.62865715	     -2.81632564	     -4.66600902	     32.46680192	      4.16615950	     12.37722087	    -27.32740140	     -0.47695313	     -0.41387908	     11.30705944	     -0.84865900	     -1.93428569	     -1.41684441	      3.74664041	      1.60605477	    -11.01609765	    -15.12920544	     47.08434982	     89.95437384	      0.00000000	      0.00000000	     -9.59934353	      6.83030796	     15.47518931	     17.74540634	     89.95437384	      0.00000000	      0.00000000
      1.43000000	     -3.38245236	     -0.65110625	      1.03089908	      0.40721336	      0.87238832	      1.08483624	     -5.16375232	     -1.67714871	    -10.22585263	    -31.22420777	     -0.54496523	      6.29790882	     -3.23305290	     -4.30702420	     32.27996411	      3.88968340	     11.83188075	    -28.52891027	     -0.49792342	     -1.01811307	     11.38987600	     -0.64202879	     -1.99426875	     -1.69764323	      3.57742039	      1.44924881	    -10.76529849	    -15.27950257	     46.32644098	     89.95437384	      0.00000000	      0.00000000	     -9.40000969	      6.94245570	     15.39608664	     17.79887568	     89.95437384	      0.00000000	      0.00000000
      1.44000000	     -3.48763978	     -0.30315721	      1.16245331	      0.41831602	      0.87232756	      1.08210276	     -4.53569265	     -2.34973219	    -10.19079008	    -33.29062640	     -0.58103104	      3.99553082	     -4.54298720	     -3.51689729	     32.35307474	      3.19171255	     10.99437095	    -29.68577740	     -0.51811456	     -1.08857212	     12.97150816	     -0.09438394	     -1.73064049	     -2.15599239	      3.48325495	      1.04839383	    -10.55388581	    -15.53300906	     45.72073128	     89.95437384	      0.00000000	      0.00000000	     -9.02226066	      7.02865458	     15.52450914	     17.60562817	     89.95437384	      0.00000000	      0.00000000
      1.45000000	     -3.27630887	     -0.08034966	      1.31714973	      0.42974176	      0.87290355	      1.07975593	     -4.17871948	     -2.93491284	    -10.49670406	    -35.37175703	     -0.61735362	      1.77166075	     -5.10606423	     -2.91758411	     32.02068012	      2.79749239	     10.70603539	    -30.86811754	     -0.53875028	     -0.58668519	     13.54721328	      0.18025136	     -1.79648760	     -2.51823172	      3.27835197	      0.79169145	    -10.24894833	    -15.75509352	     44.84564138	     89.95437384	      0.00000000	      0.00000000	     -8.75351611	      7.20482380	     15.43900434	     17.70602837	     89.95437384	      0.00000000	      0.00000000
      1.46000000	     -3.15213010	      0.21566908	      1.51132342	      0.44106159	      0.87360941	      1.07704754	     -3.52699647	     -3.69906885	    -10.95028620	    -37.68623440	     -0.65774887	     -1.14731837	     -6.02406978	     -2.01546528	     31.48634122	      2.01444207	      9.76399982	    -31.47713646	     -0.54937967	     -0.22780315	     14.20920072	      0.65787258	     -1.75420347	     -2.90862836	      3.07264440	      0.42499728	     -9.99303880	    -15.99712344	     44.02633375	     89.95437384	      0.00000000	      0.00000000	     -8.39274587	      7.35762837	     15.38444471	     17.73574333	     89.95437384	      0.00000000	      0.00000000
      1.47000000	     -2.97426342	      0.47786386	      1.77979598	      0.45215372	      0.87454176	      1.07420167	     -2.79671076	     -4.44415178	    -11.47506871	    -40.08599943	     -0.69963267	     -4.69471640	     -7.18285624	     -0.52729417	     30.75322210	      1.16627622	      8.75339870	    -31.79602457	     -0.55494532	      0.36229570	     14.86672106	      1.48294605	     -1.82337945	     -3.24414992	      2.79069779	      0.12965612	     -9.76766701	    -16.17039935	     43.06844135	     89.95437384	      0.00000000	      0.00000000	     -7.96994970	      7.49144881	     15.39312643	     17.85901187	     89.95437384	      0.00000000	      0.00000000
      1.48000000	     -2.79298783	      0.56452725	      1.97166422	      0.46337989	      0.87548579	      1.07157990	     -2.01733971	     -5.00923661	    -11.74674899	    -42.38920862	     -0.73983126	     -8.81395536	     -7.17415439	      0.37690532	     29.97940386	      0.75926223	      8.39084049	    -32.24309973	     -0.56274825	      1.16963600	     14.77875228	      1.63334499	     -1.85153073	     -3.37397820	      2.59836011	     -0.23685091	     -9.64074644	    -16.17681495	     42.11172684	     89.95437384	      0.00000000	      0.00000000	     -7.59558946	      7.63222454	     15.31092943	     18.09741098	     89.95437384	      0.00000000	      0.00000000
